<svg viewBox="0 0 189 24" fill="none" xmlns="http://www.w3.org/2000/svg">
<path d="M8.672 2.52C7.76 2.52 6.936 2.68 6.2 3C5.464 3.304 4.84 3.76 4.328 4.368C3.816 4.96 3.424 5.688 3.152 6.552C2.88 7.4 2.744 8.36 2.744 9.432C2.744 10.84 2.96 12.064 3.392 13.104C3.84 14.144 4.496 14.944 5.36 15.504C6.24 16.064 7.336 16.344 8.648 16.344C9.4 16.344 10.112 16.28 10.784 16.152C11.456 16.024 12.112 15.864 12.752 15.672V17.544C12.112 17.784 11.448 17.96 10.76 18.072C10.088 18.184 9.28 18.24 8.336 18.24C6.592 18.24 5.136 17.88 3.968 17.16C2.8 16.44 1.92 15.416 1.328 14.088C0.752 12.76 0.464 11.2 0.464 9.408C0.464 8.112 0.64 6.928 0.992 5.856C1.36 4.784 1.888 3.856 2.576 3.072C3.28 2.288 4.144 1.688 5.168 1.272C6.192 0.839999 7.368 0.623999 8.696 0.623999C9.576 0.623999 10.424 0.711999 11.24 0.887999C12.056 1.064 12.784 1.312 13.424 1.632L12.56 3.456C12.032 3.216 11.44 3 10.784 2.808C10.144 2.616 9.44 2.52 8.672 2.52ZM30.6761 5.136V18H28.5641V6.936H21.9161V18H19.8041V5.136H30.6761ZM49.5646 11.544C49.5646 12.616 49.4206 13.568 49.1326 14.4C48.8606 15.216 48.4606 15.912 47.9326 16.488C47.4206 17.064 46.7886 17.504 46.0366 17.808C45.3006 18.096 44.4766 18.24 43.5646 18.24C42.7166 18.24 41.9326 18.096 41.2126 17.808C40.4926 17.504 39.8686 17.064 39.3406 16.488C38.8126 15.912 38.3966 15.216 38.0926 14.4C37.8046 13.568 37.6606 12.616 37.6606 11.544C37.6606 10.12 37.9006 8.92 38.3806 7.944C38.8606 6.952 39.5486 6.2 40.4446 5.688C41.3406 5.16 42.4046 4.896 43.6366 4.896C44.8046 4.896 45.8286 5.16 46.7086 5.688C47.6046 6.2 48.3006 6.952 48.7966 7.944C49.3086 8.92 49.5646 10.12 49.5646 11.544ZM39.8446 11.544C39.8446 12.552 39.9726 13.432 40.2286 14.184C40.5006 14.92 40.9166 15.488 41.4766 15.888C42.0366 16.288 42.7486 16.488 43.6126 16.488C44.4766 16.488 45.1886 16.288 45.7486 15.888C46.3086 15.488 46.7166 14.92 46.9726 14.184C47.2446 13.432 47.3806 12.552 47.3806 11.544C47.3806 10.52 47.2446 9.648 46.9726 8.928C46.7006 8.208 46.2846 7.656 45.7246 7.272C45.1806 6.872 44.4686 6.672 43.5886 6.672C42.2766 6.672 41.3246 7.104 40.7326 7.968C40.1406 8.832 39.8446 10.024 39.8446 11.544ZM62.6319 4.896C64.2159 4.896 65.4879 5.448 66.4479 6.552C67.4239 7.656 67.9119 9.32 67.9119 11.544C67.9119 13 67.6879 14.232 67.2399 15.24C66.8079 16.232 66.1919 16.984 65.3919 17.496C64.6079 17.992 63.6799 18.24 62.6079 18.24C61.9519 18.24 61.3679 18.152 60.8559 17.976C60.3439 17.8 59.9039 17.576 59.5359 17.304C59.1839 17.016 58.8799 16.704 58.6239 16.368H58.4799C58.5119 16.64 58.5439 16.984 58.5759 17.4C58.6079 17.816 58.6239 18.176 58.6239 18.48V23.76H56.5119V5.136H58.2399L58.5279 6.888H58.6239C58.8799 6.52 59.1839 6.184 59.5359 5.88C59.9039 5.576 60.3359 5.336 60.8319 5.16C61.3439 4.984 61.9439 4.896 62.6319 4.896ZM62.2479 6.672C61.3839 6.672 60.6879 6.84 60.1599 7.176C59.6319 7.496 59.2479 7.984 59.0079 8.64C58.7679 9.296 58.6399 10.128 58.6239 11.136V11.544C58.6239 12.6 58.7359 13.496 58.9599 14.232C59.1839 14.968 59.5599 15.528 60.0879 15.912C60.6319 16.296 61.3679 16.488 62.2959 16.488C63.0799 16.488 63.7199 16.272 64.2159 15.84C64.7279 15.408 65.1039 14.824 65.3439 14.088C65.5999 13.336 65.7279 12.48 65.7279 11.52C65.7279 10.048 65.4399 8.872 64.8639 7.992C64.3039 7.112 63.4319 6.672 62.2479 6.672ZM83.5231 6.912H79.3231V18H77.2351V6.912H73.0831V5.136H83.5231V6.912ZM96.6318 5.136H98.8878L101.672 12.456C101.832 12.888 101.976 13.304 102.104 13.704C102.248 14.104 102.376 14.496 102.488 14.88C102.6 15.248 102.688 15.608 102.752 15.96H102.848C102.944 15.56 103.096 15.04 103.304 14.4C103.512 13.744 103.728 13.088 103.952 12.432L106.568 5.136H108.848L103.304 19.776C103 20.576 102.64 21.272 102.224 21.864C101.824 22.472 101.328 22.936 100.736 23.256C100.16 23.592 99.4558 23.76 98.6238 23.76C98.2398 23.76 97.9038 23.736 97.6158 23.688C97.3278 23.656 97.0798 23.616 96.8718 23.568V21.888C97.0478 21.92 97.2558 21.952 97.4958 21.984C97.7518 22.016 98.0158 22.032 98.2878 22.032C98.7838 22.032 99.2078 21.936 99.5598 21.744C99.9278 21.568 100.24 21.304 100.496 20.952C100.752 20.616 100.968 20.216 101.144 19.752L101.816 18.048L96.6318 5.136ZM119.642 18.24C118.506 18.24 117.49 18.008 116.594 17.544C115.714 17.08 115.018 16.36 114.506 15.384C114.01 14.408 113.762 13.16 113.762 11.64C113.762 10.056 114.026 8.768 114.554 7.776C115.082 6.784 115.794 6.056 116.69 5.592C117.602 5.128 118.634 4.896 119.786 4.896C120.442 4.896 121.074 4.968 121.682 5.112C122.29 5.24 122.786 5.4 123.17 5.592L122.522 7.344C122.138 7.2 121.69 7.064 121.178 6.936C120.666 6.808 120.186 6.744 119.738 6.744C118.874 6.744 118.162 6.928 117.602 7.296C117.042 7.664 116.626 8.208 116.354 8.928C116.082 9.648 115.946 10.544 115.946 11.616C115.946 12.64 116.082 13.512 116.354 14.232C116.626 14.952 117.034 15.496 117.578 15.864C118.122 16.232 118.802 16.416 119.618 16.416C120.322 16.416 120.938 16.344 121.466 16.2C122.01 16.056 122.506 15.88 122.954 15.672V17.544C122.522 17.768 122.042 17.936 121.514 18.048C121.002 18.176 120.378 18.24 119.642 18.24ZM139.405 18H137.269V6.888H133.477C133.317 8.92 133.117 10.656 132.877 12.096C132.637 13.52 132.333 14.68 131.965 15.576C131.597 16.472 131.157 17.128 130.645 17.544C130.133 17.96 129.533 18.168 128.845 18.168C128.637 18.168 128.429 18.152 128.221 18.12C128.029 18.104 127.869 18.064 127.741 18V16.416C127.837 16.448 127.941 16.472 128.053 16.488C128.165 16.504 128.277 16.512 128.389 16.512C128.741 16.512 129.061 16.368 129.349 16.08C129.637 15.792 129.893 15.352 130.117 14.76C130.357 14.168 130.573 13.424 130.765 12.528C130.957 11.616 131.125 10.544 131.269 9.312C131.413 8.08 131.541 6.688 131.653 5.136H139.405V18ZM145.072 5.136H147.328L150.112 12.456C150.272 12.888 150.416 13.304 150.544 13.704C150.688 14.104 150.816 14.496 150.928 14.88C151.04 15.248 151.128 15.608 151.192 15.96H151.288C151.384 15.56 151.536 15.04 151.744 14.4C151.952 13.744 152.168 13.088 152.392 12.432L155.008 5.136H157.288L151.744 19.776C151.44 20.576 151.08 21.272 150.664 21.864C150.264 22.472 149.768 22.936 149.176 23.256C148.6 23.592 147.896 23.76 147.064 23.76C146.68 23.76 146.344 23.736 146.056 23.688C145.768 23.656 145.52 23.616 145.312 23.568V21.888C145.488 21.92 145.696 21.952 145.936 21.984C146.192 22.016 146.456 22.032 146.728 22.032C147.224 22.032 147.648 21.936 148 21.744C148.368 21.568 148.68 21.304 148.936 20.952C149.192 20.616 149.408 20.216 149.584 19.752L150.256 18.048L145.072 5.136ZM170.771 5.136V6.912H165.035V18H162.923V5.136H170.771ZM178.898 12.984C178.898 13.128 178.89 13.336 178.874 13.608C178.874 13.864 178.866 14.144 178.85 14.448C178.834 14.736 178.818 15.016 178.802 15.288C178.786 15.544 178.77 15.752 178.754 15.912L185.642 5.136H188.234V18H186.266V10.416C186.266 10.16 186.266 9.824 186.266 9.408C186.282 8.992 186.298 8.584 186.314 8.184C186.33 7.768 186.346 7.456 186.362 7.248L179.522 18H176.906V5.136H178.898V12.984Z" fill="#111928"/>
</svg>
