<svg width="1340" height="194" viewBox="0 0 1340 194" fill="none" xmlns="http://www.w3.org/2000/svg">
<g filter="url(#filter0_i_81_231693)">
<path d="M58 138H138C149.046 138 158 146.954 158 158V168C158 179.046 149.046 188 138 188H58V138Z" fill="#D9D9D9"/>
<path d="M58 8H138C149.046 8 158 16.9543 158 28V38C158 49.0457 149.046 58 138 58H58V8Z" fill="#D9D9D9"/>
<path d="M8 48C8 25.9086 25.9086 8 48 8H58V188H48C25.9086 188 8 170.091 8 148V48Z" fill="#D9D9D9"/>
<path d="M50 130H130C141.046 130 150 138.954 150 150V160C150 171.046 141.046 180 130 180H50V130Z" fill="#0F7CF9"/>
<path d="M50 0H130C141.046 0 150 8.95431 150 20V30C150 41.0457 141.046 50 130 50H50V0Z" fill="#0F7CF9"/>
<path d="M0 40C0 17.9086 17.9086 0 40 0H50V180H40C17.9086 180 0 162.091 0 140V40Z" fill="#0F7CF9"/>
</g>
<path d="M256.368 143.28C248.603 143.28 242.245 141.787 237.296 138.8C232.432 135.728 228.805 131.589 226.416 126.384C224.027 121.179 222.704 115.248 222.448 108.592C222.363 105.093 222.32 101.339 222.32 97.328C222.32 93.3173 222.363 89.4773 222.448 85.808C222.704 79.152 224.027 73.2213 226.416 68.016C228.805 62.7253 232.432 58.5867 237.296 55.6C242.245 52.6133 248.603 51.12 256.368 51.12C262.427 51.12 267.589 51.9733 271.856 53.68C276.123 55.3867 279.579 57.648 282.224 60.464C284.955 63.1947 286.96 66.1813 288.24 69.424C289.605 72.5813 290.373 75.696 290.544 78.768C290.629 79.536 290.373 80.176 289.776 80.688C289.264 81.1147 288.624 81.328 287.856 81.328H285.296C284.613 81.328 284.016 81.1573 283.504 80.816C282.992 80.3893 282.651 79.664 282.48 78.64C280.859 71.0453 277.787 65.84 273.264 63.024C268.827 60.208 263.195 58.8 256.368 58.8C248.603 58.8 242.416 61.0187 237.808 65.456C233.285 69.808 230.853 76.8053 230.512 86.448C230.256 93.4453 230.256 100.613 230.512 107.952C230.853 117.595 233.285 124.635 237.808 129.072C242.416 133.424 248.603 135.6 256.368 135.6C263.195 135.6 268.827 134.192 273.264 131.376C277.787 128.56 280.859 123.355 282.48 115.76C282.651 114.736 282.992 114.053 283.504 113.712C284.016 113.285 284.613 113.072 285.296 113.072H287.856C288.624 113.072 289.264 113.328 289.776 113.84C290.373 114.267 290.629 114.864 290.544 115.632C290.373 118.704 289.605 121.861 288.24 125.104C286.96 128.261 284.955 131.248 282.224 134.064C279.579 136.795 276.123 139.013 271.856 140.72C267.589 142.427 262.427 143.28 256.368 143.28ZM331.423 142C330.57 142 329.887 141.744 329.375 141.232C328.863 140.72 328.607 140.037 328.607 139.184V55.344C328.607 54.4053 328.863 53.68 329.375 53.168C329.887 52.656 330.57 52.4 331.423 52.4H391.199C392.138 52.4 392.863 52.656 393.375 53.168C393.887 53.68 394.143 54.4053 394.143 55.344V139.184C394.143 140.037 393.887 140.72 393.375 141.232C392.863 141.744 392.138 142 391.199 142H388.895C388.042 142 387.359 141.744 386.847 141.232C386.335 140.72 386.079 140.037 386.079 139.184V60.08H336.671V139.184C336.671 140.037 336.415 140.72 335.903 141.232C335.391 141.744 334.666 142 333.727 142H331.423ZM467.768 143.28C460.685 143.28 454.669 142.043 449.72 139.568C444.771 137.008 440.973 133.125 438.328 127.92C435.683 122.629 434.232 115.973 433.976 107.952C433.891 104.112 433.848 100.528 433.848 97.2C433.848 93.872 433.891 90.288 433.976 86.448C434.232 78.512 435.768 71.9413 438.584 66.736C441.4 61.4453 445.283 57.52 450.232 54.96C455.267 52.4 461.112 51.12 467.768 51.12C474.424 51.12 480.227 52.4 485.176 54.96C490.211 57.52 494.136 61.4453 496.952 66.736C499.853 71.9413 501.389 78.512 501.56 86.448C501.731 90.288 501.816 93.872 501.816 97.2C501.816 100.528 501.731 104.112 501.56 107.952C501.389 115.973 499.939 122.629 497.208 127.92C494.563 133.125 490.765 137.008 485.816 139.568C480.867 142.043 474.851 143.28 467.768 143.28ZM467.768 135.6C475.107 135.6 481.123 133.381 485.816 128.944C490.595 124.507 493.155 117.296 493.496 107.312C493.667 103.472 493.752 100.101 493.752 97.2C493.752 94.2987 493.667 90.928 493.496 87.088C493.325 80.432 492.088 75.0133 489.784 70.832C487.565 66.6507 484.536 63.6213 480.696 61.744C476.941 59.7813 472.632 58.8 467.768 58.8C462.989 58.8 458.68 59.7813 454.84 61.744C451.085 63.6213 448.056 66.6507 445.752 70.832C443.533 75.0133 442.296 80.432 442.04 87.088C441.955 90.928 441.912 94.2987 441.912 97.2C441.912 100.101 441.955 103.472 442.04 107.312C442.381 117.296 444.941 124.507 449.72 128.944C454.499 133.381 460.515 135.6 467.768 135.6ZM544.198 142C543.345 142 542.662 141.744 542.15 141.232C541.638 140.72 541.382 140.037 541.382 139.184V55.344C541.382 54.4053 541.638 53.68 542.15 53.168C542.662 52.656 543.345 52.4 544.198 52.4H575.302C581.275 52.4 586.438 53.424 590.79 55.472C595.227 57.4347 598.641 60.3787 601.03 64.304C603.505 68.2293 604.742 73.0933 604.742 78.896C604.742 84.6987 603.505 89.5627 601.03 93.488C598.641 97.4133 595.227 100.4 590.79 102.448C586.438 104.411 581.275 105.392 575.302 105.392H549.446V139.184C549.446 140.037 549.19 140.72 548.678 141.232C548.166 141.744 547.441 142 546.502 142H544.198ZM549.446 97.712H574.662C582.086 97.712 587.59 96.0907 591.174 92.848C594.843 89.6053 596.678 84.9547 596.678 78.896C596.678 72.8373 594.843 68.1867 591.174 64.944C587.59 61.7013 582.086 60.08 574.662 60.08H549.446V97.712ZM663.357 142C662.504 142 661.821 141.744 661.309 141.232C660.797 140.72 660.541 140.037 660.541 139.184V60.08H635.197C634.344 60.08 633.661 59.824 633.149 59.312C632.637 58.8 632.381 58.1173 632.381 57.264V55.344C632.381 54.4053 632.637 53.68 633.149 53.168C633.661 52.656 634.344 52.4 635.197 52.4H693.821C694.76 52.4 695.485 52.656 695.997 53.168C696.509 53.68 696.765 54.4053 696.765 55.344V57.264C696.765 58.1173 696.509 58.8 695.997 59.312C695.485 59.824 694.76 60.08 693.821 60.08H668.605V139.184C668.605 140.037 668.349 140.72 667.837 141.232C667.325 141.744 666.6 142 665.661 142H663.357ZM786.039 142C785.186 142 784.503 141.744 783.991 141.232C783.479 140.72 783.223 140.037 783.223 139.184V137.264C783.223 136.325 783.479 135.6 783.991 135.088C784.503 134.576 785.186 134.32 786.039 134.32H790.391C793.292 134.32 795.767 133.552 797.815 132.016C799.948 130.48 801.954 128.091 803.831 124.848C805.794 121.605 807.884 117.424 810.103 112.304L835.447 54.32C835.703 53.6373 836.087 53.168 836.599 52.912C837.196 52.5707 837.794 52.4 838.391 52.4H841.079C841.762 52.4 842.359 52.656 842.871 53.168C843.383 53.68 843.639 54.2773 843.639 54.96C843.639 55.3013 843.596 55.6 843.511 55.856C843.511 56.0267 843.426 56.24 843.255 56.496L816.887 115.888C814.924 120.24 813.09 124.08 811.383 127.408C809.676 130.651 807.842 133.381 805.879 135.6C804.002 137.733 801.826 139.355 799.351 140.464C796.876 141.488 793.89 142 790.391 142H786.039ZM809.463 120.752L773.879 56.496C773.623 55.984 773.495 55.472 773.495 54.96C773.495 54.2773 773.751 53.68 774.263 53.168C774.775 52.656 775.372 52.4 776.055 52.4H778.743C779.34 52.4 779.895 52.5707 780.407 52.912C780.919 53.168 781.346 53.6373 781.687 54.32L814.071 112.176L809.463 120.752ZM905.268 143.28C897.503 143.28 891.145 141.787 886.196 138.8C881.332 135.728 877.705 131.589 875.316 126.384C872.927 121.179 871.604 115.248 871.348 108.592C871.263 105.093 871.22 101.339 871.22 97.328C871.22 93.3173 871.263 89.4773 871.348 85.808C871.604 79.152 872.927 73.2213 875.316 68.016C877.705 62.7253 881.332 58.5867 886.196 55.6C891.145 52.6133 897.503 51.12 905.268 51.12C911.327 51.12 916.489 51.9733 920.756 53.68C925.023 55.3867 928.479 57.648 931.124 60.464C933.855 63.1947 935.86 66.1813 937.14 69.424C938.505 72.5813 939.273 75.696 939.444 78.768C939.529 79.536 939.273 80.176 938.676 80.688C938.164 81.1147 937.524 81.328 936.756 81.328H934.196C933.513 81.328 932.916 81.1573 932.404 80.816C931.892 80.3893 931.551 79.664 931.38 78.64C929.759 71.0453 926.687 65.84 922.164 63.024C917.727 60.208 912.095 58.8 905.268 58.8C897.503 58.8 891.316 61.0187 886.708 65.456C882.185 69.808 879.753 76.8053 879.412 86.448C879.156 93.4453 879.156 100.613 879.412 107.952C879.753 117.595 882.185 124.635 886.708 129.072C891.316 133.424 897.503 135.6 905.268 135.6C912.095 135.6 917.727 134.192 922.164 131.376C926.687 128.56 929.759 123.355 931.38 115.76C931.551 114.736 931.892 114.053 932.404 113.712C932.916 113.285 933.513 113.072 934.196 113.072H936.756C937.524 113.072 938.164 113.328 938.676 113.84C939.273 114.267 939.529 114.864 939.444 115.632C939.273 118.704 938.505 121.861 937.14 125.104C935.86 128.261 933.855 131.248 931.124 134.064C928.479 136.795 925.023 139.013 920.756 140.72C916.489 142.427 911.327 143.28 905.268 143.28ZM1035.23 142C1034.38 142 1033.7 141.744 1033.19 141.232C1032.67 140.72 1032.42 140.037 1032.42 139.184V60.08H997.219V84.528C997.219 94.768 996.622 103.472 995.427 110.64C994.318 117.808 992.654 123.653 990.435 128.176C988.216 132.613 985.486 135.941 982.243 138.16C979 140.293 975.246 141.531 970.979 141.872C970.126 141.957 969.4 141.701 968.803 141.104C968.291 140.507 968.035 139.781 968.035 138.928V136.624C968.035 134.917 968.888 133.979 970.595 133.808C973.326 133.381 975.8 132.272 978.019 130.48C980.323 128.603 982.286 125.787 983.907 122.032C985.614 118.192 986.894 113.115 987.747 106.8C988.686 100.485 989.155 92.72 989.155 83.504V55.216C989.155 54.3627 989.411 53.68 989.923 53.168C990.435 52.656 991.118 52.4 991.971 52.4H1037.54C1038.48 52.4 1039.2 52.656 1039.71 53.168C1040.23 53.68 1040.48 54.4053 1040.48 55.344V139.184C1040.48 140.037 1040.23 140.72 1039.71 141.232C1039.2 141.744 1038.48 142 1037.54 142H1035.23ZM1086.14 142C1085.29 142 1084.6 141.744 1084.09 141.232C1083.58 140.72 1083.32 140.037 1083.32 139.184V137.264C1083.32 136.325 1083.58 135.6 1084.09 135.088C1084.6 134.576 1085.29 134.32 1086.14 134.32H1090.49C1093.39 134.32 1095.87 133.552 1097.91 132.016C1100.05 130.48 1102.05 128.091 1103.93 124.848C1105.89 121.605 1107.98 117.424 1110.2 112.304L1135.55 54.32C1135.8 53.6373 1136.19 53.168 1136.7 52.912C1137.3 52.5707 1137.89 52.4 1138.49 52.4H1141.18C1141.86 52.4 1142.46 52.656 1142.97 53.168C1143.48 53.68 1143.74 54.2773 1143.74 54.96C1143.74 55.3013 1143.7 55.6 1143.61 55.856C1143.61 56.0267 1143.53 56.24 1143.35 56.496L1116.99 115.888C1115.02 120.24 1113.19 124.08 1111.48 127.408C1109.78 130.651 1107.94 133.381 1105.98 135.6C1104.1 137.733 1101.93 139.355 1099.45 140.464C1096.98 141.488 1093.99 142 1090.49 142H1086.14ZM1109.56 120.752L1073.98 56.496C1073.72 55.984 1073.59 55.472 1073.59 54.96C1073.59 54.2773 1073.85 53.68 1074.36 53.168C1074.87 52.656 1075.47 52.4 1076.15 52.4H1078.84C1079.44 52.4 1079.99 52.5707 1080.51 52.912C1081.02 53.168 1081.45 53.6373 1081.79 54.32L1114.17 112.176L1109.56 120.752ZM1177.85 142C1176.99 142 1176.31 141.744 1175.8 141.232C1175.29 140.72 1175.03 140.037 1175.03 139.184V55.344C1175.03 54.4053 1175.29 53.68 1175.8 53.168C1176.31 52.656 1176.99 52.4 1177.85 52.4H1224.7C1225.63 52.4 1226.36 52.656 1226.87 53.168C1227.38 53.68 1227.64 54.4053 1227.64 55.344V57.264C1227.64 58.1173 1227.38 58.8 1226.87 59.312C1226.36 59.824 1225.63 60.08 1224.7 60.08H1183.1V139.184C1183.1 140.037 1182.84 140.72 1182.33 141.232C1181.82 141.744 1181.09 142 1180.15 142H1177.85ZM1261.67 142C1260.82 142 1260.14 141.744 1259.62 141.232C1259.11 140.635 1258.86 139.909 1258.86 139.056V55.344C1258.86 54.4053 1259.11 53.68 1259.62 53.168C1260.22 52.656 1260.95 52.4 1261.8 52.4H1264.1C1264.96 52.4 1265.64 52.656 1266.15 53.168C1266.66 53.68 1266.92 54.4053 1266.92 55.344V127.92L1319.53 53.936C1319.7 53.7653 1319.96 53.4667 1320.3 53.04C1320.72 52.6133 1321.36 52.4 1322.22 52.4H1324.9C1325.76 52.4 1326.44 52.656 1326.95 53.168C1327.46 53.68 1327.72 54.4053 1327.72 55.344V139.184C1327.72 140.037 1327.46 140.72 1326.95 141.232C1326.44 141.744 1325.76 142 1324.9 142H1322.6C1321.75 142 1321.02 141.744 1320.42 141.232C1319.91 140.72 1319.66 140.037 1319.66 139.184V66.736L1267.18 140.464C1267.09 140.635 1266.84 140.933 1266.41 141.36C1265.98 141.787 1265.34 142 1264.49 142H1261.67Z" fill="#111928"/>
<defs>
<filter id="filter0_i_81_231693" x="0" y="0" width="174" height="204" filterUnits="userSpaceOnUse" color-interpolation-filters="sRGB">
<feFlood flood-opacity="0" result="BackgroundImageFix"/>
<feBlend mode="normal" in="SourceGraphic" in2="BackgroundImageFix" result="shape"/>
<feColorMatrix in="SourceAlpha" type="matrix" values="0 0 0 0 0 0 0 0 0 0 0 0 0 0 0 0 0 0 127 0" result="hardAlpha"/>
<feOffset dx="16" dy="16"/>
<feGaussianBlur stdDeviation="16"/>
<feComposite in2="hardAlpha" operator="arithmetic" k2="-1" k3="1"/>
<feColorMatrix type="matrix" values="0 0 0 0 0 0 0 0 0 0 0 0 0 0 0 0 0 0 0.5 0"/>
<feBlend mode="normal" in2="shape" result="effect1_innerShadow_81_231693"/>
</filter>
</defs>
</svg>
