<svg viewBox="0 0 192 32" fill="none" xmlns="http://www.w3.org/2000/svg">
<path d="M9.672 7.52C8.76 7.52 7.936 7.68 7.2 8C6.464 8.304 5.84 8.76 5.328 9.368C4.816 9.96 4.424 10.688 4.152 11.552C3.88 12.4 3.744 13.36 3.744 14.432C3.744 15.84 3.96 17.064 4.392 18.104C4.84 19.144 5.496 19.944 6.36 20.504C7.24 21.064 8.336 21.344 9.648 21.344C10.4 21.344 11.112 21.28 11.784 21.152C12.456 21.024 13.112 20.864 13.752 20.672V22.544C13.112 22.784 12.448 22.96 11.76 23.072C11.088 23.184 10.28 23.24 9.336 23.24C7.592 23.24 6.136 22.88 4.968 22.16C3.8 21.44 2.92 20.416 2.328 19.088C1.752 17.76 1.464 16.2 1.464 14.408C1.464 13.112 1.64 11.928 1.992 10.856C2.36 9.784 2.888 8.856 3.576 8.072C4.28 7.288 5.144 6.688 6.168 6.272C7.192 5.84 8.368 5.624 9.696 5.624C10.576 5.624 11.424 5.712 12.24 5.888C13.056 6.064 13.784 6.312 14.424 6.632L13.56 8.456C13.032 8.216 12.44 8 11.784 7.808C11.144 7.616 10.44 7.52 9.672 7.52ZM31.6761 10.136V23H29.5641V11.936H22.9161V23H20.8041V10.136H31.6761ZM50.5646 16.544C50.5646 17.616 50.4206 18.568 50.1326 19.4C49.8606 20.216 49.4606 20.912 48.9326 21.488C48.4206 22.064 47.7886 22.504 47.0366 22.808C46.3006 23.096 45.4766 23.24 44.5646 23.24C43.7166 23.24 42.9326 23.096 42.2126 22.808C41.4926 22.504 40.8686 22.064 40.3406 21.488C39.8126 20.912 39.3966 20.216 39.0926 19.4C38.8046 18.568 38.6606 17.616 38.6606 16.544C38.6606 15.12 38.9006 13.92 39.3806 12.944C39.8606 11.952 40.5486 11.2 41.4446 10.688C42.3406 10.16 43.4046 9.896 44.6366 9.896C45.8046 9.896 46.8286 10.16 47.7086 10.688C48.6046 11.2 49.3006 11.952 49.7966 12.944C50.3086 13.92 50.5646 15.12 50.5646 16.544ZM40.8446 16.544C40.8446 17.552 40.9726 18.432 41.2286 19.184C41.5006 19.92 41.9166 20.488 42.4766 20.888C43.0366 21.288 43.7486 21.488 44.6126 21.488C45.4766 21.488 46.1886 21.288 46.7486 20.888C47.3086 20.488 47.7166 19.92 47.9726 19.184C48.2446 18.432 48.3806 17.552 48.3806 16.544C48.3806 15.52 48.2446 14.648 47.9726 13.928C47.7006 13.208 47.2846 12.656 46.7246 12.272C46.1806 11.872 45.4686 11.672 44.5886 11.672C43.2766 11.672 42.3246 12.104 41.7326 12.968C41.1406 13.832 40.8446 15.024 40.8446 16.544ZM63.6319 9.896C65.2159 9.896 66.4879 10.448 67.4479 11.552C68.4239 12.656 68.9119 14.32 68.9119 16.544C68.9119 18 68.6879 19.232 68.2399 20.24C67.8079 21.232 67.1919 21.984 66.3919 22.496C65.6079 22.992 64.6799 23.24 63.6079 23.24C62.9519 23.24 62.3679 23.152 61.8559 22.976C61.3439 22.8 60.9039 22.576 60.5359 22.304C60.1839 22.016 59.8799 21.704 59.6239 21.368H59.4799C59.5119 21.64 59.5439 21.984 59.5759 22.4C59.6079 22.816 59.6239 23.176 59.6239 23.48V28.76H57.5119V10.136H59.2399L59.5279 11.888H59.6239C59.8799 11.52 60.1839 11.184 60.5359 10.88C60.9039 10.576 61.3359 10.336 61.8319 10.16C62.3439 9.984 62.9439 9.896 63.6319 9.896ZM63.2479 11.672C62.3839 11.672 61.6879 11.84 61.1599 12.176C60.6319 12.496 60.2479 12.984 60.0079 13.64C59.7679 14.296 59.6399 15.128 59.6239 16.136V16.544C59.6239 17.6 59.7359 18.496 59.9599 19.232C60.1839 19.968 60.5599 20.528 61.0879 20.912C61.6319 21.296 62.3679 21.488 63.2959 21.488C64.0799 21.488 64.7199 21.272 65.2159 20.84C65.7279 20.408 66.1039 19.824 66.3439 19.088C66.5999 18.336 66.7279 17.48 66.7279 16.52C66.7279 15.048 66.4399 13.872 65.8639 12.992C65.3039 12.112 64.4319 11.672 63.2479 11.672ZM84.5231 11.912H80.3231V23H78.2351V11.912H74.0831V10.136H84.5231V11.912ZM97.6318 10.136H99.8878L102.672 17.456C102.832 17.888 102.976 18.304 103.104 18.704C103.248 19.104 103.376 19.496 103.488 19.88C103.6 20.248 103.688 20.608 103.752 20.96H103.848C103.944 20.56 104.096 20.04 104.304 19.4C104.512 18.744 104.728 18.088 104.952 17.432L107.568 10.136H109.848L104.304 24.776C104 25.576 103.64 26.272 103.224 26.864C102.824 27.472 102.328 27.936 101.736 28.256C101.16 28.592 100.456 28.76 99.6238 28.76C99.2398 28.76 98.9038 28.736 98.6158 28.688C98.3278 28.656 98.0798 28.616 97.8718 28.568V26.888C98.0478 26.92 98.2558 26.952 98.4958 26.984C98.7518 27.016 99.0158 27.032 99.2878 27.032C99.7838 27.032 100.208 26.936 100.56 26.744C100.928 26.568 101.24 26.304 101.496 25.952C101.752 25.616 101.968 25.216 102.144 24.752L102.816 23.048L97.6318 10.136ZM120.642 23.24C119.506 23.24 118.49 23.008 117.594 22.544C116.714 22.08 116.018 21.36 115.506 20.384C115.01 19.408 114.762 18.16 114.762 16.64C114.762 15.056 115.026 13.768 115.554 12.776C116.082 11.784 116.794 11.056 117.69 10.592C118.602 10.128 119.634 9.896 120.786 9.896C121.442 9.896 122.074 9.968 122.682 10.112C123.29 10.24 123.786 10.4 124.17 10.592L123.522 12.344C123.138 12.2 122.69 12.064 122.178 11.936C121.666 11.808 121.186 11.744 120.738 11.744C119.874 11.744 119.162 11.928 118.602 12.296C118.042 12.664 117.626 13.208 117.354 13.928C117.082 14.648 116.946 15.544 116.946 16.616C116.946 17.64 117.082 18.512 117.354 19.232C117.626 19.952 118.034 20.496 118.578 20.864C119.122 21.232 119.802 21.416 120.618 21.416C121.322 21.416 121.938 21.344 122.466 21.2C123.01 21.056 123.506 20.88 123.954 20.672V22.544C123.522 22.768 123.042 22.936 122.514 23.048C122.002 23.176 121.378 23.24 120.642 23.24ZM140.405 23H138.269V11.888H134.477C134.317 13.92 134.117 15.656 133.877 17.096C133.637 18.52 133.333 19.68 132.965 20.576C132.597 21.472 132.157 22.128 131.645 22.544C131.133 22.96 130.533 23.168 129.845 23.168C129.637 23.168 129.429 23.152 129.221 23.12C129.029 23.104 128.869 23.064 128.741 23V21.416C128.837 21.448 128.941 21.472 129.053 21.488C129.165 21.504 129.277 21.512 129.389 21.512C129.741 21.512 130.061 21.368 130.349 21.08C130.637 20.792 130.893 20.352 131.117 19.76C131.357 19.168 131.573 18.424 131.765 17.528C131.957 16.616 132.125 15.544 132.269 14.312C132.413 13.08 132.541 11.688 132.653 10.136H140.405V23ZM146.072 10.136H148.328L151.112 17.456C151.272 17.888 151.416 18.304 151.544 18.704C151.688 19.104 151.816 19.496 151.928 19.88C152.04 20.248 152.128 20.608 152.192 20.96H152.288C152.384 20.56 152.536 20.04 152.744 19.4C152.952 18.744 153.168 18.088 153.392 17.432L156.008 10.136H158.288L152.744 24.776C152.44 25.576 152.08 26.272 151.664 26.864C151.264 27.472 150.768 27.936 150.176 28.256C149.6 28.592 148.896 28.76 148.064 28.76C147.68 28.76 147.344 28.736 147.056 28.688C146.768 28.656 146.52 28.616 146.312 28.568V26.888C146.488 26.92 146.696 26.952 146.936 26.984C147.192 27.016 147.456 27.032 147.728 27.032C148.224 27.032 148.648 26.936 149 26.744C149.368 26.568 149.68 26.304 149.936 25.952C150.192 25.616 150.408 25.216 150.584 24.752L151.256 23.048L146.072 10.136ZM171.771 10.136V11.912H166.035V23H163.923V10.136H171.771ZM179.898 17.984C179.898 18.128 179.89 18.336 179.874 18.608C179.874 18.864 179.866 19.144 179.85 19.448C179.834 19.736 179.818 20.016 179.802 20.288C179.786 20.544 179.77 20.752 179.754 20.912L186.642 10.136H189.234V23H187.266V15.416C187.266 15.16 187.266 14.824 187.266 14.408C187.282 13.992 187.298 13.584 187.314 13.184C187.33 12.768 187.346 12.456 187.362 12.248L180.522 23H177.906V10.136H179.898V17.984Z" fill="white"/>
</svg>
