<svg width="794" height="284" viewBox="0 0 794 284" fill="none" xmlns="http://www.w3.org/2000/svg">
<path d="M261.65 89.3433L208.561 181.263L167.74 181.26L220.829 89.3399L261.65 89.3433Z" fill="#0F7CF9"/>
<rect width="106.15" height="40.8211" transform="matrix(-0.500137 0.865946 -1 -8.25797e-05 343.29 89.3433)" fill="#0F7CF9"/>
<rect width="40.8268" height="122.463" transform="matrix(-0.500137 0.865946 -1 -8.2596e-05 363.703 53.9995)" fill="#0F7CF9"/>
<path d="M392.646 89.3467L339.557 181.267L298.736 181.263L351.825 89.3433L392.646 89.3467Z" fill="#0F7CF9"/>
<rect width="106.15" height="40.8211" transform="matrix(-0.500137 0.865946 -1 -8.25936e-05 474.025 89.3403)" fill="#0F7CF9"/>
<rect width="40.8268" height="122.463" transform="matrix(-0.500137 0.865946 -1 -8.25936e-05 494.706 54)" fill="#0F7CF9"/>
<rect width="40.8268" height="122.463" transform="matrix(-0.500137 0.865946 -1 -8.25936e-05 441.617 145.92)" fill="#0F7CF9"/>
<path d="M523.648 89.3477L470.559 181.268L429.738 181.264L482.827 89.3443L523.648 89.3477Z" fill="#0F7CF9"/>
<rect width="32.6614" height="40.8211" transform="matrix(-0.500137 0.865946 -1 -8.25756e-05 605.029 89.3408)" fill="#0F7CF9"/>
<rect width="40.8268" height="122.463" transform="matrix(-0.500137 0.865946 -1 -8.2596e-05 625.709 54.001)" fill="#0F7CF9"/>
<rect width="40.8268" height="122.463" transform="matrix(-0.500137 0.865946 -1 -8.25756e-05 588.951 117.638)" fill="#0F7CF9"/>
<path d="M695.465 89.3447L642.376 181.265L601.554 181.261L654.644 89.3414L695.465 89.3447Z" fill="#0F7CF9"/>
<rect width="40.8268" height="122.463" transform="matrix(-0.500137 0.865946 -1 -8.2596e-05 756.701 53.9995)" fill="#0F7CF9"/>
<rect x="193.644" y="202.714" width="3" height="60" transform="rotate(30 193.644 202.714)" fill="#0F7CF9"/>
<path d="M204.349 260.659C203.709 260.659 203.293 260.493 203.101 260.161C202.909 259.828 202.974 259.385 203.294 258.83L204.014 257.583C204.366 256.974 204.83 256.503 205.406 256.17C205.982 255.837 206.59 255.671 207.23 255.671L210.494 255.671C212.67 255.671 214.814 255.172 216.926 254.174C219.102 253.177 221.502 251.625 224.126 249.518C226.814 247.412 229.95 244.696 233.534 241.371L274.288 203.709C274.736 203.266 275.2 202.961 275.68 202.795C276.256 202.573 276.768 202.462 277.216 202.462L279.232 202.462C279.744 202.462 280.096 202.628 280.288 202.961C280.48 203.293 280.448 203.681 280.192 204.125C280.064 204.346 279.92 204.54 279.76 204.707C279.696 204.818 279.552 204.956 279.328 205.122L237.278 243.699C234.174 246.525 231.358 249.019 228.83 251.181C226.334 253.287 223.934 255.061 221.63 256.502C219.422 257.888 217.182 258.941 214.909 259.661C212.669 260.326 210.237 260.659 207.613 260.659L204.349 260.659ZM229.886 246.858L227.296 205.124C227.296 204.792 227.392 204.459 227.584 204.127C227.84 203.683 228.256 203.295 228.832 202.963C229.408 202.63 229.952 202.464 230.464 202.464L232.48 202.464C232.928 202.464 233.28 202.575 233.536 202.796C233.824 202.963 233.968 203.267 233.968 203.711L236.558 241.288L229.886 246.858ZM298.091 261.487C292.267 261.487 288.059 260.518 285.467 258.578C282.971 256.583 281.803 253.895 281.964 250.514C282.124 247.133 283.356 243.281 285.66 238.958C286.908 236.686 288.284 234.247 289.788 231.642C291.292 229.037 292.764 226.543 294.205 224.16C296.893 219.837 300.109 215.985 303.853 212.604C307.629 209.167 311.901 206.479 316.669 204.539C321.501 202.599 326.829 201.629 332.653 201.629C337.197 201.629 340.749 202.183 343.309 203.291C345.869 204.399 347.613 205.868 348.541 207.697C349.565 209.47 349.949 211.41 349.693 213.516C349.533 215.567 348.941 217.59 347.917 219.585C347.693 220.084 347.261 220.5 346.621 220.832C346.077 221.109 345.517 221.248 344.941 221.248L343.021 221.248C342.509 221.248 342.125 221.137 341.869 220.916C341.645 220.639 341.661 220.167 341.917 219.502C343.549 214.57 343.197 211.189 340.861 209.36C338.589 207.531 334.893 206.617 329.773 206.617C323.949 206.617 318.477 208.058 313.357 210.941C308.333 213.767 303.885 218.312 300.013 224.575C297.196 229.12 294.508 233.776 291.948 238.542C288.588 244.805 287.772 249.378 289.5 252.259C291.323 255.086 295.147 256.499 300.971 256.499C306.091 256.499 310.843 255.584 315.227 253.755C319.676 251.926 323.932 248.545 327.996 243.612C328.508 242.947 329.02 242.503 329.532 242.282C330.076 242.005 330.604 241.866 331.116 241.866L333.036 241.866C333.612 241.866 333.996 242.032 334.188 242.365C334.476 242.642 334.444 243.03 334.092 243.529C332.812 245.524 331.052 247.575 328.812 249.681C326.668 251.732 324.043 253.671 320.939 255.501C317.931 257.274 314.507 258.715 310.667 259.824C306.827 260.933 302.635 261.487 298.091 261.487ZM400.846 260.652C400.206 260.652 399.79 260.486 399.598 260.153C399.406 259.821 399.47 259.377 399.791 258.823L429.456 207.444L403.056 207.445L393.888 223.325C390.048 229.976 386.335 235.629 382.751 240.285C379.231 244.94 375.791 248.737 372.431 251.674C369.103 254.557 365.807 256.718 362.543 258.159C359.31 259.545 356.03 260.349 352.702 260.571C352.03 260.626 351.582 260.46 351.358 260.072C351.198 259.684 351.278 259.213 351.599 258.658L352.463 257.162C353.103 256.054 354.095 255.444 355.439 255.333C357.647 255.056 359.919 254.335 362.255 253.171C364.687 251.952 367.215 250.123 369.839 247.684C372.559 245.19 375.423 241.892 378.431 237.791C381.503 233.689 384.768 228.646 388.224 222.66L398.833 204.287C399.153 203.732 399.601 203.289 400.177 202.956C400.753 202.624 401.361 202.457 402.001 202.457L436.177 202.456C436.881 202.456 437.329 202.622 437.521 202.955C437.713 203.287 437.633 203.759 437.281 204.368L405.839 258.823C405.518 259.377 405.07 259.82 404.494 260.153C403.918 260.485 403.278 260.652 402.574 260.652L400.846 260.652ZM443.824 260.65C443.184 260.65 442.768 260.484 442.576 260.151C442.384 259.819 442.448 259.376 442.769 258.821L443.489 257.574C443.841 256.965 444.305 256.493 444.881 256.161C445.457 255.828 446.065 255.662 446.705 255.662L449.969 255.662C452.145 255.662 454.289 255.163 456.401 254.165C458.577 253.168 460.977 251.616 463.601 249.509C466.289 247.403 469.425 244.687 473.009 241.362L513.763 203.7C514.211 203.257 514.675 202.952 515.155 202.786C515.731 202.564 516.243 202.453 516.691 202.453L518.707 202.453C519.219 202.453 519.571 202.619 519.763 202.952C519.955 203.284 519.923 203.672 519.667 204.116C519.539 204.337 519.395 204.531 519.235 204.698C519.171 204.809 519.027 204.947 518.803 205.113L476.753 243.69C473.649 246.516 470.833 249.01 468.305 251.172C465.809 253.278 463.409 255.052 461.105 256.493C458.897 257.879 456.657 258.932 454.384 259.652C452.144 260.317 449.712 260.65 447.088 260.65L443.824 260.65ZM469.361 246.849L466.771 205.115C466.771 204.783 466.867 204.45 467.059 204.118C467.315 203.674 467.731 203.286 468.307 202.954C468.883 202.621 469.427 202.455 469.939 202.455L471.955 202.455C472.403 202.455 472.755 202.566 473.011 202.787C473.299 202.954 473.443 203.258 473.443 203.702L476.033 241.279L469.361 246.849ZM517.406 260.647C516.766 260.648 516.35 260.481 516.158 260.149C515.966 259.816 516.03 259.373 516.35 258.819L547.792 204.364C548.144 203.754 548.608 203.283 549.184 202.951C549.76 202.618 550.368 202.452 551.008 202.452L586.144 202.451C586.848 202.45 587.296 202.617 587.488 202.949C587.68 203.282 587.6 203.753 587.248 204.363L586.528 205.61C586.208 206.164 585.76 206.607 585.184 206.94C584.608 207.272 583.968 207.439 583.264 207.439L552.064 207.44L522.398 258.818C522.078 259.373 521.63 259.816 521.054 260.149C520.478 260.481 519.838 260.647 519.134 260.647L517.406 260.647ZM585.075 260.645C584.435 260.645 584.019 260.479 583.827 260.146C583.667 259.758 583.747 259.287 584.067 258.733L615.461 204.362C615.813 203.752 616.277 203.281 616.853 202.948C617.493 202.616 618.133 202.449 618.773 202.449L620.501 202.449C621.141 202.449 621.557 202.615 621.749 202.948C621.941 203.281 621.861 203.752 621.509 204.361L594.291 251.5L661.493 203.445C661.685 203.334 661.989 203.14 662.405 202.863C662.885 202.586 663.445 202.448 664.085 202.448L666.101 202.447C666.741 202.447 667.157 202.614 667.349 202.946C667.541 203.279 667.461 203.75 667.109 204.36L635.667 258.814C635.347 259.368 634.899 259.812 634.323 260.144C633.747 260.477 633.139 260.643 632.499 260.643L630.771 260.643C630.131 260.643 629.683 260.477 629.427 260.144C629.235 259.812 629.299 259.369 629.619 258.814L656.789 211.759L589.779 259.647C589.651 259.758 589.347 259.952 588.867 260.229C588.387 260.506 587.827 260.645 587.187 260.645L585.075 260.645Z" fill="#111928"/>
<rect width="81.6479" height="40.8239" transform="matrix(1 -3.7706e-05 -0.500033 0.866007 97.9775 146.059)" fill="#0F7CF9"/>
<rect width="81.6479" height="40.8239" transform="matrix(1 -3.7706e-05 -0.500033 0.866007 151.052 54.1387)" fill="#0F7CF9"/>
<rect width="40.8239" height="146.966" transform="matrix(1 -3.7683e-05 -0.500033 0.866007 110.228 54.1401)" fill="#0F7CF9"/>
</svg>
