<svg width="794" height="283" viewBox="0 0 794 283" fill="none" xmlns="http://www.w3.org/2000/svg">
<path d="M261.657 88.3794L208.568 180.299L167.747 180.296L220.836 88.376L261.657 88.3794Z" fill="#1D4ED8"/>
<path d="M262.917 86.0054L260.235 90.6484L219.534 90.645L222.216 86.002L262.917 86.0054Z" fill="#1D4ED8"/>
<path d="M344.629 86.0078L341.947 90.6508L302 90.6475L304.681 86.0045L344.629 86.0078Z" fill="#1D4ED8"/>
<rect width="106.15" height="40.8211" transform="matrix(-0.500137 0.865946 -1 -8.25797e-05 343.297 88.3794)" fill="#1D4ED8"/>
<rect width="40.8268" height="122.463" transform="matrix(-0.500137 0.865946 -1 -8.2596e-05 363.71 53.0356)" fill="#1D4ED8"/>
<path d="M392.646 88.3833L339.557 180.303L298.736 180.3L351.825 88.3799L392.646 88.3833Z" fill="#1D4ED8"/>
<path d="M396.646 81.3833L343.557 173.303L302.736 173.3L355.825 81.3799L396.646 81.3833Z" fill="#1D4ED8"/>
<rect width="106.15" height="40.8211" transform="matrix(-0.500137 0.865946 -1 -8.25936e-05 474.025 88.3765)" fill="#1D4ED8"/>
<rect width="106.15" height="40.8211" transform="matrix(-0.500137 0.865946 -1 -8.25936e-05 478.91 79.0073)" fill="#1D4ED8"/>
<rect width="40.8268" height="122.199" transform="matrix(-0.500137 0.865946 -1 -8.25936e-05 494.441 53.0366)" fill="#1D4ED8"/>
<rect width="40.8268" height="122.213" transform="matrix(-0.500137 0.865946 -1 -8.25936e-05 441.367 144.956)" fill="#1D4ED8"/>
<path d="M530.164 77.1025L470.559 180.304L429.738 180.301L489.343 77.0992L530.164 77.1025Z" fill="#1D4ED8"/>
<rect width="53.1236" height="41.0236" transform="matrix(-0.500137 0.865946 -1 -8.25756e-05 610.604 79.0742)" fill="#1D4ED8"/>
<rect width="40.8268" height="122.463" transform="matrix(-0.500137 0.865946 -1 -8.2596e-05 625.709 53.0376)" fill="#1D4ED8"/>
<rect width="40.8268" height="122.463" transform="matrix(-0.500137 0.865946 -1 -8.25756e-05 588.951 116.674)" fill="#1D4ED8"/>
<path d="M703.27 74.8682L642.376 180.301L601.555 180.297L662.448 74.8648L703.27 74.8682Z" fill="#1D4ED8"/>
<rect width="40.8268" height="122.463" transform="matrix(-0.500137 0.865946 -1 -8.2596e-05 756.701 53.0356)" fill="#1D4ED8"/>
<rect x="193.644" y="201.75" width="4" height="64.3385" transform="rotate(30 193.644 201.75)" fill="#1D4ED8"/>
<path d="M222.48 256.48C221.92 256.48 221.556 256.335 221.388 256.044C221.22 255.753 221.276 255.365 221.556 254.88L222.186 253.789C222.494 253.255 222.9 252.843 223.404 252.552C223.908 252.261 224.44 252.116 225 252.116L227.856 252.116C229.76 252.116 231.636 251.679 233.484 250.806C235.388 249.933 237.489 248.575 239.785 246.732C242.137 244.889 244.881 242.513 248.017 239.603L283.676 206.649C284.068 206.261 284.474 205.994 284.894 205.849C285.398 205.655 285.846 205.558 286.238 205.558L288.002 205.558C288.45 205.558 288.758 205.703 288.926 205.994C289.094 206.285 289.066 206.625 288.842 207.013C288.73 207.207 288.604 207.376 288.464 207.522C288.408 207.619 288.282 207.74 288.086 207.886L251.293 241.64C248.577 244.113 246.113 246.295 243.901 248.187C241.716 250.03 239.616 251.582 237.6 252.843C235.668 254.055 233.708 254.977 231.72 255.607C229.76 256.189 227.632 256.48 225.336 256.48L222.48 256.48ZM244.825 244.404L242.558 207.887C242.558 207.596 242.642 207.305 242.81 207.014C243.034 206.626 243.398 206.287 243.902 205.996C244.406 205.705 244.882 205.559 245.33 205.559L247.094 205.559C247.486 205.559 247.794 205.656 248.018 205.85C248.27 205.996 248.396 206.262 248.396 206.65L250.663 239.53L244.825 244.404ZM304.504 257.205C299.408 257.205 295.726 256.356 293.458 254.659C291.274 252.913 290.252 250.561 290.393 247.603C290.533 244.645 291.611 241.274 293.627 237.492C294.719 235.503 295.923 233.37 297.239 231.09C298.555 228.811 299.843 226.629 301.103 224.543C303.456 220.761 306.27 217.39 309.546 214.432C312.85 211.425 316.588 209.073 320.76 207.375C324.988 205.678 329.65 204.829 334.746 204.829C338.722 204.828 341.83 205.313 344.07 206.283C346.31 207.253 347.836 208.538 348.648 210.138C349.544 211.69 349.88 213.387 349.656 215.23C349.516 217.025 348.998 218.795 348.102 220.541C347.906 220.977 347.528 221.341 346.968 221.632C346.492 221.874 346.002 221.996 345.498 221.996L343.818 221.996C343.37 221.996 343.034 221.899 342.81 221.705C342.614 221.462 342.628 221.05 342.852 220.468C344.28 216.152 343.972 213.194 341.928 211.593C339.94 209.993 336.706 209.193 332.226 209.193C327.13 209.193 322.342 210.455 317.862 212.976C313.466 215.45 309.574 219.427 306.185 224.907C303.721 228.883 301.369 232.957 299.129 237.128C296.189 242.608 295.475 246.609 296.987 249.131C298.582 251.604 301.928 252.84 307.024 252.84C311.504 252.84 315.662 252.04 319.498 250.439C323.391 248.839 327.115 245.88 330.671 241.564C331.119 240.982 331.567 240.594 332.015 240.4C332.491 240.158 332.953 240.036 333.401 240.036L335.081 240.036C335.585 240.036 335.921 240.182 336.089 240.473C336.341 240.715 336.313 241.055 336.005 241.491C334.885 243.237 333.345 245.031 331.385 246.874C329.509 248.669 327.212 250.366 324.496 251.966C321.864 253.518 318.868 254.779 315.508 255.749C312.148 256.719 308.48 257.205 304.504 257.205ZM394.415 256.474C393.855 256.474 393.491 256.328 393.323 256.037C393.155 255.746 393.211 255.359 393.491 254.874L419.449 209.917L396.349 209.918L388.326 223.813C384.966 229.632 381.718 234.579 378.582 238.652C375.502 242.726 372.491 246.048 369.551 248.619C366.639 251.14 363.755 253.032 360.899 254.293C358.071 255.505 355.201 256.209 352.289 256.403C351.701 256.451 351.309 256.306 351.113 255.966C350.973 255.627 351.043 255.215 351.323 254.73L352.079 253.42C352.639 252.45 353.507 251.917 354.683 251.82C356.615 251.577 358.603 250.947 360.647 249.928C362.775 248.861 364.987 247.261 367.284 245.127C369.664 242.945 372.17 240.059 374.802 236.47C377.49 232.882 380.346 228.468 383.37 223.231L392.653 207.154C392.933 206.669 393.325 206.281 393.829 205.99C394.333 205.699 394.865 205.554 395.425 205.554L425.329 205.553C425.945 205.553 426.337 205.698 426.505 205.989C426.673 206.28 426.603 206.692 426.295 207.226L398.783 254.873C398.503 255.358 398.111 255.746 397.607 256.037C397.103 256.328 396.543 256.474 395.927 256.474L394.415 256.474ZM432.021 256.472C431.461 256.472 431.097 256.327 430.929 256.036C430.761 255.745 430.817 255.357 431.097 254.872L431.727 253.781C432.035 253.248 432.441 252.835 432.945 252.544C433.449 252.253 433.981 252.108 434.541 252.108L437.397 252.108C439.301 252.108 441.177 251.671 443.025 250.798C444.929 249.925 447.029 248.567 449.325 246.724C451.677 244.881 454.421 242.505 457.557 239.595L493.217 206.641C493.609 206.253 494.015 205.986 494.435 205.841C494.939 205.647 495.387 205.55 495.779 205.55L497.543 205.55C497.991 205.55 498.299 205.695 498.467 205.986C498.635 206.277 498.607 206.617 498.383 207.005C498.271 207.199 498.145 207.368 498.005 207.514C497.949 207.611 497.823 207.732 497.627 207.878L460.833 241.632C458.117 244.105 455.653 246.288 453.441 248.179C451.257 250.022 449.157 251.574 447.141 252.835C445.209 254.047 443.249 254.969 441.261 255.599C439.301 256.181 437.173 256.472 434.877 256.472L432.021 256.472ZM454.365 244.396L452.099 207.879C452.099 207.588 452.183 207.297 452.351 207.006C452.575 206.618 452.939 206.279 453.443 205.988C453.947 205.697 454.423 205.552 454.871 205.552L456.635 205.551C457.027 205.551 457.335 205.648 457.559 205.842C457.811 205.988 457.937 206.255 457.937 206.643L460.203 239.522L454.365 244.396ZM496.405 256.47C495.845 256.47 495.481 256.325 495.313 256.034C495.145 255.743 495.201 255.355 495.481 254.87L522.993 207.222C523.301 206.689 523.707 206.276 524.211 205.985C524.715 205.694 525.247 205.549 525.807 205.549L556.551 205.548C557.167 205.548 557.559 205.693 557.727 205.984C557.895 206.275 557.825 206.687 557.517 207.221L556.887 208.312C556.607 208.797 556.215 209.185 555.711 209.476C555.207 209.767 554.647 209.912 554.031 209.912L526.731 209.913L500.773 254.87C500.493 255.354 500.101 255.742 499.597 256.033C499.093 256.324 498.533 256.47 497.917 256.47L496.405 256.47ZM555.615 256.468C555.055 256.468 554.691 256.322 554.523 256.031C554.383 255.692 554.453 255.28 554.733 254.795L582.203 207.22C582.511 206.686 582.917 206.274 583.421 205.983C583.981 205.692 584.541 205.547 585.101 205.547L586.613 205.547C587.173 205.547 587.537 205.692 587.705 205.983C587.873 206.274 587.803 206.686 587.495 207.22L563.679 248.466L622.481 206.418C622.649 206.321 622.915 206.151 623.279 205.909C623.699 205.666 624.189 205.545 624.749 205.545L626.513 205.545C627.073 205.545 627.437 205.69 627.605 205.981C627.773 206.272 627.703 206.685 627.395 207.218L599.883 254.866C599.603 255.351 599.211 255.739 598.707 256.03C598.203 256.321 597.671 256.466 597.111 256.466L595.599 256.466C595.039 256.466 594.647 256.321 594.423 256.03C594.255 255.739 594.311 255.351 594.591 254.866L618.365 213.693L559.731 255.595C559.619 255.692 559.353 255.861 558.933 256.104C558.513 256.346 558.023 256.468 557.463 256.468L555.615 256.468Z" fill="#111928"/>
<rect width="81.6479" height="40.8239" transform="matrix(1 -3.7706e-05 -0.500033 0.866007 97.9766 145.095)" fill="#1D4ED8"/>
<rect width="81.6479" height="40.8239" transform="matrix(1 -3.7706e-05 -0.500033 0.866007 85.9775 145.095)" fill="#1D4ED8"/>
<rect width="81.6479" height="40.8239" transform="matrix(1 -3.7706e-05 -0.500033 0.866007 151.052 53.1753)" fill="#1D4ED8"/>
<rect width="81.6479" height="40.8239" transform="matrix(1 -3.7706e-05 -0.500033 0.866007 141.052 53.1753)" fill="#1D4ED8"/>
<rect width="40.8239" height="146.966" transform="matrix(1 -3.7683e-05 -0.500033 0.866007 110.228 53.1768)" fill="#1D4ED8"/>
</svg>
